<svg xmlns="http://www.w3.org/2000/svg" width="181.458" height="98.308" viewBox="0 0 181.458 98.308"><defs><style>.a{fill:#00c8ac;}.b{fill:#f7f7f7;}.c{fill:#1a3864;}.d{fill:#00a689;}.e{fill:none;stroke:#f7f7f7;stroke-miterlimit:10;stroke-width:1.037px;}</style></defs><g transform="translate(-582.53 -36.4)"><path class="a" d="M582.53,60.85h8.26v4.13c1.9-2.45,4.4-4.67,8.59-4.67,3.8,0,6.68,1.68,8.21,4.62a11.993,11.993,0,0,1,9.57-4.62c6.14,0,9.84,3.7,9.84,10.71V89.99h-8.26V73.73c0-3.91-1.74-5.92-4.84-5.92s-5,2.01-5,5.92V89.98h-8.26V73.73c0-3.91-1.74-5.92-4.84-5.92s-5,2.01-5,5.92V89.98h-8.26V60.85Z"/><path class="a" d="M633.78,96.83l2.77-5.98a7.555,7.555,0,0,0,3.53,1.14,2.759,2.759,0,0,0,2.88-1.9L631.55,60.85h8.75l6.63,19.84,6.36-19.84h8.59l-11.2,29.84c-2.23,5.92-4.62,8.15-9.57,8.15A13.676,13.676,0,0,1,633.78,96.83Z"/><path class="b" d="M582.69,94.06h8.7v7.34h-8.7Zm.22,10.55h8.26v29.13h-8.26Z"/><path class="b" d="M598.94,104.61h8.26v4.13c1.9-2.45,4.4-4.67,8.59-4.67,3.8,0,6.68,1.68,8.21,4.62a11.993,11.993,0,0,1,9.57-4.62c6.14,0,9.84,3.7,9.84,10.71v18.97h-8.26V117.5c0-3.91-1.74-5.92-4.84-5.92s-5,2.01-5,5.92v16.25h-8.26V117.5c0-3.91-1.74-5.92-4.84-5.92s-5,2.01-5,5.92v16.25h-8.26V104.61Z"/><path class="b" d="M650.36,123.46V104.6h8.26v16.25c0,3.91,1.85,5.92,5,5.92s5.16-2.01,5.16-5.92V104.6h8.26v29.13h-8.26V129.6c-1.9,2.45-4.35,4.67-8.53,4.67C654,134.28,650.36,130.15,650.36,123.46Z"/><path class="b" d="M684.44,104.61h8.26v4.13c1.9-2.45,4.35-4.67,8.53-4.67,6.25,0,9.89,4.13,9.89,10.82v18.86h-8.26V117.5c0-3.91-1.85-5.92-5-5.92s-5.16,2.01-5.16,5.92v16.25h-8.26V104.61Z"/><path class="b" d="M716.88,119.33v-.11c0-8.37,6.74-15.16,15.82-15.16,9.02,0,15.71,6.68,15.71,15.05v.11c0,8.37-6.74,15.16-15.82,15.16C723.57,134.39,716.88,127.7,716.88,119.33Zm23.37,0v-.11a7.74,7.74,0,0,0-7.66-8.04c-4.73,0-7.55,3.64-7.55,7.93v.11a7.74,7.74,0,0,0,7.66,8.04C737.43,127.27,740.25,123.63,740.25,119.33Z"/><path class="a" d="M689.67,66.52l-13.43.61a5.431,5.431,0,0,0,.49,10.85l13.43-.61a26.488,26.488,0,0,1,13.87,2.98,37.734,37.734,0,0,1-4.15-12.97,39.174,39.174,0,0,0-10.21-.86"/><path class="b" d="M707.89,37.65a5.424,5.424,0,0,1,4.65,6.11l-1.87,13.77a29.5,29.5,0,0,0,1.75,15.28,33.021,33.021,0,0,1,6.13,5.45c-4.94-5.63-7.03-13.42-5.87-21.93l1.87-13.77a5.432,5.432,0,0,0-9.12-4.67,5.347,5.347,0,0,1,2.46-.24"/><path class="c" d="M722.49,94.16a5.408,5.408,0,0,0,1.87-1.07,5.5,5.5,0,0,1-1.87,1.07"/><path class="b" d="M724.86,85.42l-6.29-7.16a33.755,33.755,0,0,0-6.13-5.45,24.09,24.09,0,0,0,4.12,6.66l6.29,7.16a5.422,5.422,0,0,1-.36,7.53,5.43,5.43,0,0,0,2.37-8.74"/><path class="c" d="M720.68,94.44h0a5.364,5.364,0,0,1-3.13-1.06,5.483,5.483,0,0,0,3.13,1.06"/><path class="d" d="M710.4,85.43a36.044,36.044,0,0,1-8.23-17.46c-.75-.22-1.52-.41-2.29-.59a37.8,37.8,0,0,0,4.15,12.97,22.961,22.961,0,0,1,6.37,5.08"/><path class="b" d="M701.93,54.87a41.864,41.864,0,0,0,.25,13.1,35.284,35.284,0,0,1,10.26,4.84,29.473,29.473,0,0,1-1.76-15.28l1.87-13.77a5.431,5.431,0,0,0-4.65-6.11,5.292,5.292,0,0,0-2.45.24,5.423,5.423,0,0,0-1.65,3.21Z"/><path class="c" d="M720.68,94.44h0a5.507,5.507,0,0,0,1.8-.28,5.508,5.508,0,0,1-1.8.28"/><path class="b" d="M710.4,85.43l6.29,7.16a5.34,5.34,0,0,0,.86.79,5.434,5.434,0,0,0,3.13,1.06,5.507,5.507,0,0,0,1.8-.28,5.441,5.441,0,0,0,.36-7.53l-6.29-7.16a24.034,24.034,0,0,1-4.12-6.66,35.283,35.283,0,0,0-10.26-4.84,36.044,36.044,0,0,0,8.23,17.46"/><path class="b" d="M717.53,62.5a1.634,1.634,0,0,1-.22-.02,2.361,2.361,0,0,1-2.04-2.64l2.38-18.51a2.359,2.359,0,1,1,4.68.6l-2.38,18.51a2.346,2.346,0,0,1-2.42,2.06"/><path class="a" d="M674.61,86.01a2.362,2.362,0,0,1-.02-4.72l18.64-.88a2.363,2.363,0,0,1,.22,4.72l-18.64.88h-.2"/><path class="b" d="M755.07,126.62v3.93h-.51v-3.93h-1.44v-.49h3.39v.49Z"/><path class="b" d="M761.25,130.55l-.01-3.64-1.61,3.17h-.3l-1.6-3.17v3.64h-.48v-4.42h.62l1.62,3.18,1.61-3.18h.62v4.42Z"/><path class="e" d="M763.47,128.34a5.845,5.845,0,1,1-5.85-5.85A5.851,5.851,0,0,1,763.47,128.34Z"/></g></svg>