<svg xmlns="http://www.w3.org/2000/svg" xmlns:xlink="http://www.w3.org/1999/xlink" width="385.68" height="642.204" viewBox="0 0 385.68 642.204"><defs><style>.a{fill:none;}.b{clip-path:url(#a);}.c{fill:#eaeaea;opacity:0.84;}.d{fill:#02d3b0;}</style><clipPath id="a"><rect class="a" width="385.68" height="642.204" transform="translate(-5993.016 -1972.703)"/></clipPath></defs><g transform="translate(5993.016 1972.703)"><g class="b"><circle class="c" cx="174.528" cy="174.528" r="174.528" transform="translate(-6233.751 -1741.796) rotate(-45)"/><path class="d" d="M-5939.881-1734.945a2.324,2.324,0,0,0-2.3,2.349,2.323,2.323,0,0,0,2.348,2.3,2.325,2.325,0,0,0,2.3-2.348A2.325,2.325,0,0,0-5939.881-1734.945Z"/><path class="d" d="M-5955.638-1726.848a2.323,2.323,0,0,0-2.3,2.348,2.325,2.325,0,0,0,2.348,2.3,2.324,2.324,0,0,0,2.3-2.349A2.323,2.323,0,0,0-5955.638-1726.848Z"/><path class="d" d="M-5921.366-1730.927a2.325,2.325,0,0,0-2.3,2.349,2.324,2.324,0,0,0,2.349,2.3,2.323,2.323,0,0,0,2.3-2.348A2.324,2.324,0,0,0-5921.366-1730.927Z"/><path class="d" d="M-5903.249-1730.8a2.323,2.323,0,0,0-2.3,2.349,2.325,2.325,0,0,0,2.349,2.3,2.325,2.325,0,0,0,2.3-2.349A2.323,2.323,0,0,0-5903.249-1730.8Z"/><path class="d" d="M-5930.237-1748.433a.569.569,0,0,0,.573.562.569.569,0,0,0,.562-.574.567.567,0,0,0-.574-.561A.567.567,0,0,0-5930.237-1748.433Z"/><path class="d" d="M-5911.031-1747.132a2.323,2.323,0,0,0-2.3,2.348,2.324,2.324,0,0,0,2.348,2.3,2.326,2.326,0,0,0,2.3-2.349A2.324,2.324,0,0,0-5911.031-1747.132Z"/><path class="d" d="M-5894.714-1753.84a2.324,2.324,0,0,0-2.3,2.349,2.324,2.324,0,0,0,2.349,2.3,2.324,2.324,0,0,0,2.3-2.349A2.324,2.324,0,0,0-5894.714-1753.84Z"/><path class="d" d="M-5886.378-1737.193a2.325,2.325,0,0,0-2.3,2.348,2.325,2.325,0,0,0,2.349,2.3,2.325,2.325,0,0,0,2.3-2.349A2.324,2.324,0,0,0-5886.378-1737.193Z"/><path class="d" d="M-5876.132-1756.063a2.325,2.325,0,0,0-2.3,2.348,2.326,2.326,0,0,0,2.349,2.3,2.324,2.324,0,0,0,2.3-2.349A2.322,2.322,0,0,0-5876.132-1756.063Z"/><path class="d" d="M-5867.542-1739.212a2.323,2.323,0,0,0-2.3,2.348,2.323,2.323,0,0,0,2.348,2.3,2.325,2.325,0,0,0,2.3-2.349A2.324,2.324,0,0,0-5867.542-1739.212Z"/><path class="d" d="M-5858.242-1721.928a2.323,2.323,0,0,0-2.3,2.348,2.324,2.324,0,0,0,2.348,2.3,2.325,2.325,0,0,0,2.3-2.349A2.324,2.324,0,0,0-5858.242-1721.928Z"/><path class="d" d="M-5876.518-1720.909a2.324,2.324,0,0,0-2.3,2.349,2.324,2.324,0,0,0,2.348,2.3,2.324,2.324,0,0,0,2.3-2.349A2.324,2.324,0,0,0-5876.518-1720.909Z"/><path class="d" d="M-5894.369-1715.844a2.325,2.325,0,0,0-2.3,2.349,2.324,2.324,0,0,0,2.349,2.3,2.323,2.323,0,0,0,2.3-2.348A2.325,2.325,0,0,0-5894.369-1715.844Z"/><path class="d" d="M-5913.312-1711.428a2.325,2.325,0,0,0-2.3,2.349,2.324,2.324,0,0,0,2.349,2.3,2.325,2.325,0,0,0,2.3-2.348A2.325,2.325,0,0,0-5913.312-1711.428Z"/><path class="d" d="M-5929.809-1701.092a2.325,2.325,0,0,0-2.3,2.349,2.324,2.324,0,0,0,2.349,2.3,2.323,2.323,0,0,0,2.3-2.348A2.325,2.325,0,0,0-5929.809-1701.092Z"/><path class="d" d="M-5933.921-1717.833a2.326,2.326,0,0,0-2.3,2.349,2.325,2.325,0,0,0,2.349,2.3,2.324,2.324,0,0,0,2.3-2.348A2.325,2.325,0,0,0-5933.921-1717.833Z"/><path class="d" d="M-5950.093-1709.186a2.324,2.324,0,0,0-2.3,2.349,2.323,2.323,0,0,0,2.348,2.3,2.324,2.324,0,0,0,2.3-2.348A2.324,2.324,0,0,0-5950.093-1709.186Z"/><path class="d" d="M-5945.519-1691.213a2.323,2.323,0,0,0-2.3,2.348,2.323,2.323,0,0,0,2.348,2.3,2.326,2.326,0,0,0,2.3-2.349A2.325,2.325,0,0,0-5945.519-1691.213Z"/><path class="d" d="M-5959.128-1679.438a2.325,2.325,0,0,0-2.3,2.348,2.325,2.325,0,0,0,2.349,2.3,2.324,2.324,0,0,0,2.3-2.349A2.324,2.324,0,0,0-5959.128-1679.438Z"/><path class="d" d="M-5970.68-1665.856a2.326,2.326,0,0,0-2.3,2.348,2.325,2.325,0,0,0,2.349,2.3,2.323,2.323,0,0,0,2.3-2.349A2.324,2.324,0,0,0-5970.68-1665.856Z"/><path class="d" d="M-5987.322-1668.007a2.324,2.324,0,0,0-2.348-2.3,2.146,2.146,0,0,0-.88.376v3.9a2.138,2.138,0,0,0,.929.373A2.323,2.323,0,0,0-5987.322-1668.007Z"/><path class="d" d="M-5978.237-1684.789a2.324,2.324,0,0,0-2.3,2.348,2.326,2.326,0,0,0,2.349,2.3,2.323,2.323,0,0,0,2.3-2.349A2.322,2.322,0,0,0-5978.237-1684.789Z"/><path class="d" d="M-5964.9-1697.68a2.324,2.324,0,0,0-2.3,2.348,2.324,2.324,0,0,0,2.349,2.3,2.323,2.323,0,0,0,2.3-2.348A2.324,2.324,0,0,0-5964.9-1697.68Z"/><path class="d" d="M-5970.249-1715.535a2.323,2.323,0,0,0-2.3,2.348,2.323,2.323,0,0,0,2.348,2.3,2.325,2.325,0,0,0,2.3-2.349A2.324,2.324,0,0,0-5970.249-1715.535Z"/><path class="d" d="M-5984.87-1703.185a2.324,2.324,0,0,0-2.3,2.348,2.325,2.325,0,0,0,2.349,2.3,2.325,2.325,0,0,0,2.3-2.349A2.323,2.323,0,0,0-5984.87-1703.185Z"/><path class="d" d="M-5981.5-1651.442a2.323,2.323,0,0,0-2.3,2.349,2.324,2.324,0,0,0,2.349,2.3,2.325,2.325,0,0,0,2.3-2.349A2.325,2.325,0,0,0-5981.5-1651.442Z"/><path class="d" d="M-5988.052-1632.686a2.325,2.325,0,0,0-2.349-2.3c-.058,0-.092.059-.149.064v4.505c.075.006.121.08.2.079A2.325,2.325,0,0,0-5988.052-1632.686Z"/><path class="d" d="M-5984.632-1496.043a2.325,2.325,0,0,0-2.3,2.349,2.324,2.324,0,0,0,2.349,2.3,2.323,2.323,0,0,0,2.3-2.348A2.324,2.324,0,0,0-5984.632-1496.043Z"/><path class="d" d="M-5975.578-1480.6a2.323,2.323,0,0,0-2.3,2.348,2.324,2.324,0,0,0,2.348,2.3,2.325,2.325,0,0,0,2.3-2.349A2.324,2.324,0,0,0-5975.578-1480.6Z"/><path class="d" d="M-5963.988-1466.753a2.325,2.325,0,0,0-2.3,2.348,2.324,2.324,0,0,0,2.349,2.3,2.323,2.323,0,0,0,2.3-2.349A2.323,2.323,0,0,0-5963.988-1466.753Z"/><path class="d" d="M-5951.5-1454.562a2.325,2.325,0,0,0-2.3,2.349,2.324,2.324,0,0,0,2.349,2.3,2.322,2.322,0,0,0,2.3-2.348A2.324,2.324,0,0,0-5951.5-1454.562Z"/><path class="d" d="M-5937.429-1443.775a2.325,2.325,0,0,0-2.3,2.349,2.324,2.324,0,0,0,2.349,2.3,2.324,2.324,0,0,0,2.3-2.349A2.324,2.324,0,0,0-5937.429-1443.775Z"/><path class="d" d="M-5922.251-1435.785a2.323,2.323,0,0,0-2.3,2.349,2.323,2.323,0,0,0,2.349,2.3,2.324,2.324,0,0,0,2.3-2.348A2.325,2.325,0,0,0-5922.251-1435.785Z"/><path class="d" d="M-5903.694-1430.065a2.326,2.326,0,0,0-2.3,2.349,2.325,2.325,0,0,0,2.349,2.3,2.323,2.323,0,0,0,2.3-2.349A2.324,2.324,0,0,0-5903.694-1430.065Z"/><path class="d" d="M-5916.135-1419.818a2.325,2.325,0,0,0-2.3,2.348,2.324,2.324,0,0,0,2.349,2.3,2.325,2.325,0,0,0,2.3-2.349A2.324,2.324,0,0,0-5916.135-1419.818Z"/><path class="d" d="M-5936.589-1423.2a2.325,2.325,0,0,0-2.3,2.348,2.326,2.326,0,0,0,2.349,2.3,2.323,2.323,0,0,0,2.3-2.349A2.322,2.322,0,0,0-5936.589-1423.2Z"/><path class="d" d="M-5951.746-1432.882a2.325,2.325,0,0,0-2.3,2.349,2.325,2.325,0,0,0,2.349,2.3,2.323,2.323,0,0,0,2.3-2.348A2.324,2.324,0,0,0-5951.746-1432.882Z"/><path class="d" d="M-5965.419-1442.927a2.323,2.323,0,0,0-2.3,2.348,2.323,2.323,0,0,0,2.348,2.3,2.324,2.324,0,0,0,2.3-2.349A2.324,2.324,0,0,0-5965.419-1442.927Z"/><path class="d" d="M-5977.434-1453.739a2.324,2.324,0,0,0-2.3,2.349,2.325,2.325,0,0,0,2.349,2.3,2.325,2.325,0,0,0,2.3-2.349A2.323,2.323,0,0,0-5977.434-1453.739Z"/><path class="d" d="M-5987.392-1466.923a2.325,2.325,0,0,0-2.3,2.348,2.323,2.323,0,0,0,2.349,2.3,2.324,2.324,0,0,0,2.3-2.349A2.325,2.325,0,0,0-5987.392-1466.923Z"/><path class="d" d="M-5983.626-1435.778a2.323,2.323,0,0,0-2.3,2.348,2.324,2.324,0,0,0,2.348,2.3,2.325,2.325,0,0,0,2.3-2.349A2.324,2.324,0,0,0-5983.626-1435.778Z"/><path class="d" d="M-5969.713-1424.341a2.323,2.323,0,0,0-2.3,2.348,2.324,2.324,0,0,0,2.348,2.3,2.325,2.325,0,0,0,2.3-2.348A2.324,2.324,0,0,0-5969.713-1424.341Z"/><path class="d" d="M-5954.792-1414.536a2.324,2.324,0,0,0-2.3,2.348,2.326,2.326,0,0,0,2.349,2.3,2.325,2.325,0,0,0,2.3-2.349A2.323,2.323,0,0,0-5954.792-1414.536Z"/><path class="d" d="M-5941.081-1403.874a2.325,2.325,0,0,0-2.3,2.348,2.325,2.325,0,0,0,2.349,2.3,2.325,2.325,0,0,0,2.3-2.349A2.324,2.324,0,0,0-5941.081-1403.874Z"/><path class="d" d="M-5926.376-1408.365a2.324,2.324,0,0,0-2.3,2.349,2.324,2.324,0,0,0,2.348,2.3,2.324,2.324,0,0,0,2.3-2.349A2.325,2.325,0,0,0-5926.376-1408.365Z"/><path class="d" d="M-5922.625-1392.19a2.324,2.324,0,0,0-2.3,2.349,2.324,2.324,0,0,0,2.349,2.3,2.324,2.324,0,0,0,2.3-2.348A2.325,2.325,0,0,0-5922.625-1392.19Z"/><path class="d" d="M-5909.061-1402.846a2.323,2.323,0,0,0-2.3,2.348,2.324,2.324,0,0,0,2.348,2.3,2.325,2.325,0,0,0,2.3-2.349A2.325,2.325,0,0,0-5909.061-1402.846Z"/><path class="d" d="M-5902.194-1387.479a2.324,2.324,0,0,0-2.3,2.348,2.324,2.324,0,0,0,2.349,2.3,2.324,2.324,0,0,0,2.3-2.349A2.323,2.323,0,0,0-5902.194-1387.479Z"/><path class="d" d="M-5889.534-1399.457a2.323,2.323,0,0,0-2.3,2.348,2.323,2.323,0,0,0,2.348,2.3,2.324,2.324,0,0,0,2.3-2.349A2.324,2.324,0,0,0-5889.534-1399.457Z"/><path class="d" d="M-5897.343-1414.314a2.325,2.325,0,0,0-2.3,2.349,2.325,2.325,0,0,0,2.349,2.3,2.323,2.323,0,0,0,2.3-2.349A2.323,2.323,0,0,0-5897.343-1414.314Z"/><path class="d" d="M-5884.585-1424.459a2.324,2.324,0,0,0-2.3,2.349,2.324,2.324,0,0,0,2.348,2.3,2.325,2.325,0,0,0,2.3-2.349A2.324,2.324,0,0,0-5884.585-1424.459Z"/><path class="d" d="M-5876.96-1410.852a2.323,2.323,0,0,0-2.3,2.348,2.324,2.324,0,0,0,2.349,2.3,2.323,2.323,0,0,0,2.3-2.348A2.323,2.323,0,0,0-5876.96-1410.852Z"/><path class="d" d="M-5864.136-1421.73a2.324,2.324,0,0,0-2.3,2.348,2.324,2.324,0,0,0,2.348,2.3,2.325,2.325,0,0,0,2.3-2.349A2.324,2.324,0,0,0-5864.136-1421.73Z"/><path class="d" d="M-5855.868-1408.7a2.322,2.322,0,0,0-2.3,2.348,2.324,2.324,0,0,0,2.348,2.3,2.325,2.325,0,0,0,2.3-2.349A2.324,2.324,0,0,0-5855.868-1408.7Z"/><path class="d" d="M-5850.233-1394.44a2.326,2.326,0,0,0-2.3,2.349,2.325,2.325,0,0,0,2.349,2.3,2.323,2.323,0,0,0,2.3-2.348A2.324,2.324,0,0,0-5850.233-1394.44Z"/><path class="d" d="M-5869.623-1396.852a2.326,2.326,0,0,0-2.3,2.349,2.325,2.325,0,0,0,2.349,2.3,2.323,2.323,0,0,0,2.3-2.348A2.324,2.324,0,0,0-5869.623-1396.852Z"/><path class="d" d="M-5882.824-1384.4a2.324,2.324,0,0,0-2.3,2.349,2.325,2.325,0,0,0,2.349,2.3,2.323,2.323,0,0,0,2.3-2.349A2.324,2.324,0,0,0-5882.824-1384.4Z"/><path class="d" d="M-5864.144-1382.254a2.324,2.324,0,0,0-2.3,2.348,2.323,2.323,0,0,0,2.349,2.3,2.325,2.325,0,0,0,2.3-2.349A2.324,2.324,0,0,0-5864.144-1382.254Z"/><path class="d" d="M-5845.766-1380.361a2.324,2.324,0,0,0-2.3,2.348,2.324,2.324,0,0,0,2.349,2.3,2.324,2.324,0,0,0,2.3-2.348A2.323,2.323,0,0,0-5845.766-1380.361Z"/><path class="d" d="M-5830.668-1386.642a2.324,2.324,0,0,0-2.3,2.349,2.324,2.324,0,0,0,2.349,2.3,2.324,2.324,0,0,0,2.3-2.349A2.324,2.324,0,0,0-5830.668-1386.642Z"/><path class="d" d="M-5813.924-1384.486a2.324,2.324,0,0,0-2.3,2.349,2.325,2.325,0,0,0,2.348,2.3,2.324,2.324,0,0,0,2.3-2.349A2.324,2.324,0,0,0-5813.924-1384.486Z"/><path class="d" d="M-5800.286-1393.646a2.326,2.326,0,0,0-2.3,2.349,2.325,2.325,0,0,0,2.349,2.3,2.322,2.322,0,0,0,2.3-2.348A2.325,2.325,0,0,0-5800.286-1393.646Z"/><path class="d" d="M-5784.14-1392.28a2.334,2.334,0,0,0-2.308,2.357,2.333,2.333,0,0,0,2.357,2.307,2.33,2.33,0,0,0,2.307-2.356A2.331,2.331,0,0,0-5784.14-1392.28Z"/><path class="d" d="M-5770.331-1402.519a2.325,2.325,0,0,0-2.3,2.349,2.324,2.324,0,0,0,2.349,2.3,2.324,2.324,0,0,0,2.3-2.348A2.324,2.324,0,0,0-5770.331-1402.519Z"/><path class="d" d="M-5756.246-1411.253a2.324,2.324,0,0,0-2.3,2.349,2.325,2.325,0,0,0,2.348,2.3,2.324,2.324,0,0,0,2.3-2.348A2.325,2.325,0,0,0-5756.246-1411.253Z"/><path class="d" d="M-5742.115-1420.331a2.323,2.323,0,0,0-2.3,2.348,2.324,2.324,0,0,0,2.348,2.3,2.325,2.325,0,0,0,2.3-2.349A2.323,2.323,0,0,0-5742.115-1420.331Z"/><path class="d" d="M-5729.252-1430.843a2.323,2.323,0,0,0-2.3,2.348,2.324,2.324,0,0,0,2.349,2.3,2.324,2.324,0,0,0,2.3-2.348A2.324,2.324,0,0,0-5729.252-1430.843Z"/><path class="d" d="M-5716.207-1441.068a2.325,2.325,0,0,0-2.3,2.349,2.323,2.323,0,0,0,2.349,2.3,2.324,2.324,0,0,0,2.3-2.348A2.325,2.325,0,0,0-5716.207-1441.068Z"/><path class="d" d="M-5729.56-1453.158a2.324,2.324,0,0,0-2.3,2.348,2.325,2.325,0,0,0,2.349,2.3,2.324,2.324,0,0,0,2.3-2.349A2.324,2.324,0,0,0-5729.56-1453.158Z"/><path class="d" d="M-5744.034-1440.933a2.324,2.324,0,0,0-2.3,2.349,2.326,2.326,0,0,0,2.349,2.3,2.325,2.325,0,0,0,2.3-2.349A2.323,2.323,0,0,0-5744.034-1440.933Z"/><path class="d" d="M-5758.757-1430.213a2.325,2.325,0,0,0-2.3,2.349,2.325,2.325,0,0,0,2.349,2.3,2.323,2.323,0,0,0,2.3-2.348A2.323,2.323,0,0,0-5758.757-1430.213Z"/><path class="d" d="M-5773.784-1420.852a2.323,2.323,0,0,0-2.3,2.348,2.324,2.324,0,0,0,2.348,2.3,2.326,2.326,0,0,0,2.3-2.349A2.324,2.324,0,0,0-5773.784-1420.852Z"/><path class="d" d="M-5787.927-1410.271a2.323,2.323,0,0,0-2.3,2.349,2.325,2.325,0,0,0,2.348,2.3,2.324,2.324,0,0,0,2.3-2.349A2.323,2.323,0,0,0-5787.927-1410.271Z"/><path class="d" d="M-5804.628-1411.534a2.325,2.325,0,0,0-2.3,2.348,2.323,2.323,0,0,0,2.349,2.3,2.325,2.325,0,0,0,2.3-2.349A2.324,2.324,0,0,0-5804.628-1411.534Z"/><path class="d" d="M-5818.647-1401.729a2.323,2.323,0,0,0-2.3,2.349,2.324,2.324,0,0,0,2.348,2.3,2.324,2.324,0,0,0,2.3-2.349A2.323,2.323,0,0,0-5818.647-1401.729Z"/><path class="d" d="M-5835.98-1404.314a2.322,2.322,0,0,0-2.3,2.348,2.324,2.324,0,0,0,2.348,2.3,2.325,2.325,0,0,0,2.3-2.349A2.324,2.324,0,0,0-5835.98-1404.314Z"/><path class="d" d="M-5842.973-1420.293a2.323,2.323,0,0,0-2.3,2.348,2.326,2.326,0,0,0,2.349,2.3,2.324,2.324,0,0,0,2.3-2.349A2.322,2.322,0,0,0-5842.973-1420.293Z"/><path class="d" d="M-5824.482-1419.837a2.325,2.325,0,0,0-2.3,2.349,2.324,2.324,0,0,0,2.349,2.3,2.325,2.325,0,0,0,2.3-2.348A2.325,2.325,0,0,0-5824.482-1419.837Z"/><path class="d" d="M-5808.725-1426.99a2.326,2.326,0,0,0-2.3,2.349,2.324,2.324,0,0,0,2.349,2.3,2.322,2.322,0,0,0,2.3-2.348A2.324,2.324,0,0,0-5808.725-1426.99Z"/><path class="d" d="M-5791.781-1429.51a2.323,2.323,0,0,0-2.3,2.348,2.324,2.324,0,0,0,2.348,2.3,2.326,2.326,0,0,0,2.3-2.349A2.324,2.324,0,0,0-5791.781-1429.51Z"/><path class="d" d="M-5777.008-1439.13a2.324,2.324,0,0,0-2.3,2.348,2.324,2.324,0,0,0,2.349,2.3,2.324,2.324,0,0,0,2.3-2.349A2.323,2.323,0,0,0-5777.008-1439.13Z"/><path class="d" d="M-5762.283-1448.527a2.324,2.324,0,0,0-2.3,2.349,2.325,2.325,0,0,0,2.348,2.3,2.324,2.324,0,0,0,2.3-2.348A2.324,2.324,0,0,0-5762.283-1448.527Z"/><path class="d" d="M-5748.823-1459.163a2.323,2.323,0,0,0-2.3,2.349,2.324,2.324,0,0,0,2.348,2.3,2.326,2.326,0,0,0,2.3-2.349A2.324,2.324,0,0,0-5748.823-1459.163Z"/><path class="d" d="M-5737.557-1471.528a2.323,2.323,0,0,0-2.3,2.348,2.325,2.325,0,0,0,2.348,2.3,2.324,2.324,0,0,0,2.3-2.349A2.324,2.324,0,0,0-5737.557-1471.528Z"/><path class="d" d="M-5727.141-1484.813a2.325,2.325,0,0,0-2.3,2.349,2.323,2.323,0,0,0,2.348,2.3,2.323,2.323,0,0,0,2.3-2.348A2.324,2.324,0,0,0-5727.141-1484.813Z"/><path class="d" d="M-5718.344-1498.812a2.325,2.325,0,0,0-2.3,2.349,2.324,2.324,0,0,0,2.349,2.3,2.323,2.323,0,0,0,2.3-2.348A2.324,2.324,0,0,0-5718.344-1498.812Z"/><path class="d" d="M-5698.834-1499.115a2.324,2.324,0,0,0-2.3,2.349,2.324,2.324,0,0,0,2.349,2.3,2.324,2.324,0,0,0,2.3-2.349A2.324,2.324,0,0,0-5698.834-1499.115Z"/><path class="d" d="M-5711.643-1514.149a2.324,2.324,0,0,0-2.3,2.349,2.324,2.324,0,0,0,2.349,2.3,2.325,2.325,0,0,0,2.3-2.349A2.324,2.324,0,0,0-5711.643-1514.149Z"/><path class="d" d="M-5706.04-1530.011a2.324,2.324,0,0,0-2.3,2.348,2.323,2.323,0,0,0,2.349,2.3,2.324,2.324,0,0,0,2.3-2.349A2.324,2.324,0,0,0-5706.04-1530.011Z"/><path class="d" d="M-5692.287-1516.175a2.324,2.324,0,0,0-2.3,2.349,2.322,2.322,0,0,0,2.348,2.3,2.326,2.326,0,0,0,2.3-2.349A2.325,2.325,0,0,0-5692.287-1516.175Z"/><path class="d" d="M-5686.518-1534.093a2.323,2.323,0,0,0-2.3,2.348,2.325,2.325,0,0,0,2.349,2.3,2.324,2.324,0,0,0,2.3-2.349A2.324,2.324,0,0,0-5686.518-1534.093Z"/><path class="d" d="M-5684.1-1552.943a2.324,2.324,0,0,0-2.3,2.348,2.324,2.324,0,0,0,2.349,2.3,2.324,2.324,0,0,0,2.3-2.349A2.324,2.324,0,0,0-5684.1-1552.943Z"/><path class="d" d="M-5702.429-1546.241a2.323,2.323,0,0,0-2.3,2.349,2.323,2.323,0,0,0,2.348,2.3,2.323,2.323,0,0,0,2.3-2.348A2.324,2.324,0,0,0-5702.429-1546.241Z"/><path class="d" d="M-5700.71-1563.185a2.324,2.324,0,0,0-2.3,2.349,2.322,2.322,0,0,0,2.348,2.3,2.325,2.325,0,0,0,2.3-2.349A2.326,2.326,0,0,0-5700.71-1563.185Z"/><path class="d" d="M-5700.914-1580.422a2.324,2.324,0,0,0-2.3,2.349,2.324,2.324,0,0,0,2.349,2.3,2.323,2.323,0,0,0,2.3-2.349A2.324,2.324,0,0,0-5700.914-1580.422Z"/><path class="d" d="M-5683.316-1571.538a2.323,2.323,0,0,0-2.3,2.349,2.324,2.324,0,0,0,2.348,2.3,2.326,2.326,0,0,0,2.3-2.349A2.324,2.324,0,0,0-5683.316-1571.538Z"/><path class="d" d="M-5684.043-1589.561a2.325,2.325,0,0,0-2.3,2.349,2.324,2.324,0,0,0,2.349,2.3,2.324,2.324,0,0,0,2.3-2.348A2.324,2.324,0,0,0-5684.043-1589.561Z"/><path class="d" d="M-5687.218-1606.778a2.324,2.324,0,0,0-2.3,2.349,2.323,2.323,0,0,0,2.348,2.3,2.324,2.324,0,0,0,2.3-2.348A2.324,2.324,0,0,0-5687.218-1606.778Z"/><path class="d" d="M-5703.554-1597.3a2.325,2.325,0,0,0-2.3,2.349,2.324,2.324,0,0,0,2.349,2.3,2.324,2.324,0,0,0,2.3-2.348A2.323,2.323,0,0,0-5703.554-1597.3Z"/><path class="d" d="M-5706.226-1614.647a2.325,2.325,0,0,0-2.3,2.349,2.324,2.324,0,0,0,2.349,2.3,2.325,2.325,0,0,0,2.3-2.348A2.324,2.324,0,0,0-5706.226-1614.647Z"/><path class="d" d="M-5717.265-1629.016a2.324,2.324,0,0,0-2.3,2.349,2.322,2.322,0,0,0,2.348,2.3,2.323,2.323,0,0,0,2.3-2.348A2.326,2.326,0,0,0-5717.265-1629.016Z"/><path class="d" d="M-5704.843-1635.986a2.325,2.325,0,0,0-2.3,2.349,2.324,2.324,0,0,0,2.349,2.3,2.324,2.324,0,0,0,2.3-2.348A2.324,2.324,0,0,0-5704.843-1635.986Z"/><path class="d" d="M-5690.837-1642.139a2.326,2.326,0,0,0-2.3,2.349,2.325,2.325,0,0,0,2.349,2.3,2.325,2.325,0,0,0,2.3-2.349A2.325,2.325,0,0,0-5690.837-1642.139Z"/><path class="d" d="M-5704.338-1654.677a2.324,2.324,0,0,0-2.3,2.349,2.323,2.323,0,0,0,2.348,2.3,2.325,2.325,0,0,0,2.3-2.348A2.325,2.325,0,0,0-5704.338-1654.677Z"/><path class="d" d="M-5715.158-1668.376a2.324,2.324,0,0,0-2.3,2.348,2.324,2.324,0,0,0,2.348,2.3,2.324,2.324,0,0,0,2.3-2.349A2.325,2.325,0,0,0-5715.158-1668.376Z"/><path class="d" d="M-5721.337-1648.131a2.325,2.325,0,0,0-2.3,2.349,2.323,2.323,0,0,0,2.348,2.3,2.323,2.323,0,0,0,2.3-2.348A2.325,2.325,0,0,0-5721.337-1648.131Z"/><path class="d" d="M-5732.93-1662.409a2.326,2.326,0,0,0-2.3,2.349,2.324,2.324,0,0,0,2.349,2.3,2.323,2.323,0,0,0,2.3-2.348A2.326,2.326,0,0,0-5732.93-1662.409Z"/><path class="d" d="M-5743.671-1676.3a2.325,2.325,0,0,0-2.3,2.348,2.327,2.327,0,0,0,2.349,2.3,2.324,2.324,0,0,0,2.3-2.349A2.322,2.322,0,0,0-5743.671-1676.3Z"/><path class="d" d="M-5756.658-1688.222a2.323,2.323,0,0,0-2.3,2.348,2.326,2.326,0,0,0,2.348,2.3,2.325,2.325,0,0,0,2.3-2.349A2.324,2.324,0,0,0-5756.658-1688.222Z"/><path class="d" d="M-5771.137-1698.325a2.323,2.323,0,0,0-2.3,2.348,2.325,2.325,0,0,0,2.349,2.3,2.324,2.324,0,0,0,2.3-2.348A2.322,2.322,0,0,0-5771.137-1698.325Z"/><path class="d" d="M-5787.032-1707.35a2.324,2.324,0,0,0-2.3,2.348,2.324,2.324,0,0,0,2.349,2.3,2.325,2.325,0,0,0,2.3-2.349A2.324,2.324,0,0,0-5787.032-1707.35Z"/><path class="d" d="M-5782.525-1724.529a2.326,2.326,0,0,0-2.3,2.349,2.325,2.325,0,0,0,2.349,2.3,2.322,2.322,0,0,0,2.3-2.348A2.325,2.325,0,0,0-5782.525-1724.529Z"/><path class="d" d="M-5797.1-1732.7a2.325,2.325,0,0,0-2.3,2.349,2.324,2.324,0,0,0,2.349,2.3,2.324,2.324,0,0,0,2.3-2.348A2.324,2.324,0,0,0-5797.1-1732.7Z"/><path class="d" d="M-5803.785-1715.18a2.326,2.326,0,0,0-2.3,2.349,2.325,2.325,0,0,0,2.349,2.3,2.323,2.323,0,0,0,2.3-2.348A2.323,2.323,0,0,0-5803.785-1715.18Z"/><path class="d" d="M-5821.937-1719.049a2.324,2.324,0,0,0-2.3,2.348,2.325,2.325,0,0,0,2.349,2.3,2.325,2.325,0,0,0,2.3-2.349A2.323,2.323,0,0,0-5821.937-1719.049Z"/><path class="d" d="M-5840.033-1721.453a2.324,2.324,0,0,0-2.3,2.349,2.323,2.323,0,0,0,2.348,2.3,2.324,2.324,0,0,0,2.3-2.348A2.325,2.325,0,0,0-5840.033-1721.453Z"/><path class="d" d="M-5813.388-1735.9a2.324,2.324,0,0,0-2.3,2.348,2.325,2.325,0,0,0,2.349,2.3,2.325,2.325,0,0,0,2.3-2.349A2.323,2.323,0,0,0-5813.388-1735.9Z"/><path class="d" d="M-5830.924-1738.474a2.324,2.324,0,0,0-2.3,2.349,2.323,2.323,0,0,0,2.349,2.3,2.324,2.324,0,0,0,2.3-2.349A2.325,2.325,0,0,0-5830.924-1738.474Z"/><path class="d" d="M-5849.01-1739.805a2.324,2.324,0,0,0-2.3,2.348,2.325,2.325,0,0,0,2.349,2.3,2.324,2.324,0,0,0,2.3-2.349A2.322,2.322,0,0,0-5849.01-1739.805Z"/><path class="d" d="M-5857.235-1757.574a2.324,2.324,0,0,0-2.3,2.349,2.322,2.322,0,0,0,2.348,2.3,2.324,2.324,0,0,0,2.3-2.348A2.326,2.326,0,0,0-5857.235-1757.574Z"/><path class="d" d="M-5838.07-1757.142a2.324,2.324,0,0,0-2.3,2.348,2.324,2.324,0,0,0,2.349,2.3,2.324,2.324,0,0,0,2.3-2.348A2.323,2.323,0,0,0-5838.07-1757.142Z"/><path class="d" d="M-5819.373-1754.722a2.324,2.324,0,0,0-2.3,2.348,2.325,2.325,0,0,0,2.349,2.3,2.325,2.325,0,0,0,2.3-2.349A2.323,2.323,0,0,0-5819.373-1754.722Z"/><path class="d" d="M-5800.434-1751.773a2.325,2.325,0,0,0-2.3,2.349,2.323,2.323,0,0,0,2.349,2.3,2.324,2.324,0,0,0,2.3-2.348A2.324,2.324,0,0,0-5800.434-1751.773Z"/><path class="d" d="M-5782.278-1744.12a2.325,2.325,0,0,0-2.3,2.349,2.325,2.325,0,0,0,2.349,2.3,2.323,2.323,0,0,0,2.3-2.349A2.323,2.323,0,0,0-5782.278-1744.12Z"/><path class="d" d="M-5765.629-1735.35a2.324,2.324,0,0,0-2.3,2.348,2.325,2.325,0,0,0,2.349,2.3,2.324,2.324,0,0,0,2.3-2.349A2.323,2.323,0,0,0-5765.629-1735.35Z"/><path class="d" d="M-5749.448-1725.842a2.323,2.323,0,0,0-2.3,2.348,2.326,2.326,0,0,0,2.348,2.3,2.325,2.325,0,0,0,2.3-2.349A2.323,2.323,0,0,0-5749.448-1725.842Z"/><path class="d" d="M-5733.834-1714.808a2.325,2.325,0,0,0-2.3,2.348,2.323,2.323,0,0,0,2.349,2.3,2.325,2.325,0,0,0,2.3-2.349A2.324,2.324,0,0,0-5733.834-1714.808Z"/><path class="d" d="M-5767.158-1716.238a2.326,2.326,0,0,0-2.3,2.349,2.324,2.324,0,0,0,2.349,2.3,2.324,2.324,0,0,0,2.3-2.348A2.326,2.326,0,0,0-5767.158-1716.238Z"/><path class="d" d="M-5752.053-1706.668a2.323,2.323,0,0,0-2.3,2.349,2.323,2.323,0,0,0,2.348,2.3,2.325,2.325,0,0,0,2.3-2.348A2.324,2.324,0,0,0-5752.053-1706.668Z"/><path class="d" d="M-5738-1695.418a2.323,2.323,0,0,0-2.3,2.349,2.325,2.325,0,0,0,2.348,2.3,2.325,2.325,0,0,0,2.3-2.349A2.324,2.324,0,0,0-5738-1695.418Z"/><path class="d" d="M-5725.63-1682.554a2.324,2.324,0,0,0-2.3,2.348,2.324,2.324,0,0,0,2.349,2.3,2.326,2.326,0,0,0,2.3-2.349A2.325,2.325,0,0,0-5725.63-1682.554Z"/><path class="d" d="M-5719.2-1701.906a2.325,2.325,0,0,0-2.3,2.349,2.324,2.324,0,0,0,2.348,2.3,2.323,2.323,0,0,0,2.3-2.348A2.323,2.323,0,0,0-5719.2-1701.906Z"/><path class="d" d="M-5707.093-1687.319a2.324,2.324,0,0,0-2.3,2.349,2.323,2.323,0,0,0,2.348,2.3,2.323,2.323,0,0,0,2.3-2.348A2.325,2.325,0,0,0-5707.093-1687.319Z"/><path class="d" d="M-5696.39-1672.432a2.324,2.324,0,0,0-2.3,2.349,2.325,2.325,0,0,0,2.349,2.3,2.324,2.324,0,0,0,2.3-2.349A2.324,2.324,0,0,0-5696.39-1672.432Z"/><path class="d" d="M-5685.624-1657.018a2.323,2.323,0,0,0-2.3,2.348,2.325,2.325,0,0,0,2.348,2.3,2.325,2.325,0,0,0,2.3-2.349A2.323,2.323,0,0,0-5685.624-1657.018Z"/><path class="d" d="M-5675.657-1637.342a2.324,2.324,0,0,0-2.3,2.348,2.326,2.326,0,0,0,2.349,2.3,2.325,2.325,0,0,0,2.3-2.349A2.323,2.323,0,0,0-5675.657-1637.342Z"/><path class="d" d="M-5690.3-1624.13a2.323,2.323,0,0,0-2.3,2.348,2.324,2.324,0,0,0,2.348,2.3,2.326,2.326,0,0,0,2.3-2.349A2.324,2.324,0,0,0-5690.3-1624.13Z"/><path class="d" d="M-5672.021-1618.835a2.322,2.322,0,0,0-2.3,2.348,2.325,2.325,0,0,0,2.349,2.3,2.325,2.325,0,0,0,2.3-2.349A2.324,2.324,0,0,0-5672.021-1618.835Z"/><path class="d" d="M-5667.779-1601.033a2.324,2.324,0,0,0-2.3,2.348,2.324,2.324,0,0,0,2.349,2.3,2.324,2.324,0,0,0,2.3-2.349A2.324,2.324,0,0,0-5667.779-1601.033Z"/><path class="d" d="M-5665.773-1582.755a2.324,2.324,0,0,0-2.3,2.349,2.323,2.323,0,0,0,2.348,2.3,2.324,2.324,0,0,0,2.3-2.348A2.325,2.325,0,0,0-5665.773-1582.755Z"/><path class="d" d="M-5666.328-1564.707a2.324,2.324,0,0,0-2.3,2.349,2.324,2.324,0,0,0,2.348,2.3,2.324,2.324,0,0,0,2.3-2.349A2.325,2.325,0,0,0-5666.328-1564.707Z"/><path class="d" d="M-5667.394-1547.725a2.322,2.322,0,0,0-2.3,2.348,2.324,2.324,0,0,0,2.348,2.3,2.326,2.326,0,0,0,2.3-2.349A2.325,2.325,0,0,0-5667.394-1547.725Z"/><path class="d" d="M-5668.884-1531.594a2.322,2.322,0,0,0-2.3,2.348,2.324,2.324,0,0,0,2.348,2.3,2.325,2.325,0,0,0,2.3-2.349A2.324,2.324,0,0,0-5668.884-1531.594Z"/><path class="d" d="M-5674.047-1515.985a2.324,2.324,0,0,0-2.3,2.348,2.324,2.324,0,0,0,2.349,2.3,2.323,2.323,0,0,0,2.3-2.348A2.324,2.324,0,0,0-5674.047-1515.985Z"/><path class="d" d="M-5679.836-1499.915a2.326,2.326,0,0,0-2.3,2.349,2.324,2.324,0,0,0,2.349,2.3,2.324,2.324,0,0,0,2.3-2.348A2.326,2.326,0,0,0-5679.836-1499.915Z"/><path class="d" d="M-5686.948-1483.924a2.325,2.325,0,0,0-2.3,2.349,2.324,2.324,0,0,0,2.349,2.3,2.323,2.323,0,0,0,2.3-2.348A2.323,2.323,0,0,0-5686.948-1483.924Z"/><path class="d" d="M-5695.226-1467.95a2.325,2.325,0,0,0-2.3,2.349,2.322,2.322,0,0,0,2.348,2.3,2.323,2.323,0,0,0,2.3-2.348A2.324,2.324,0,0,0-5695.226-1467.95Z"/><path class="d" d="M-5706.524-1454.555a2.324,2.324,0,0,0-2.3,2.348,2.324,2.324,0,0,0,2.349,2.3,2.325,2.325,0,0,0,2.3-2.348A2.324,2.324,0,0,0-5706.524-1454.555Z"/><path class="d" d="M-5717.737-1467.985a2.324,2.324,0,0,0-2.3,2.348,2.324,2.324,0,0,0,2.348,2.3,2.325,2.325,0,0,0,2.3-2.349A2.324,2.324,0,0,0-5717.737-1467.985Z"/><path class="d" d="M-5706.966-1482.664a2.325,2.325,0,0,0-2.3,2.348,2.324,2.324,0,0,0,2.349,2.3,2.322,2.322,0,0,0,2.3-2.348A2.323,2.323,0,0,0-5706.966-1482.664Z"/></g></g></svg>